<?xml version="1.0" standalone="yes"?>
<svg xmlns="http://www.w3.org/2000/svg" width="950" height="960">
<path style="fill:#ffffff; stroke:none;" d="M0 0L0 912L912 912L912 0L0 0z"/>
<path style="fill:#a7767e; stroke:none;" d="M270 127C270 131.533 268.419 139.781 271.028 143.682C275.889 150.952 288.419 139.341 276.989 136.318C275.091 135.816 272.942 136.007 271 136L271 131C280.53 131 289.009 132.007 291 143C310.501 136.37 297.564 113.579 312 106C312 116.095 314.927 131.555 311.258 140.995C309.351 145.902 302.701 146.556 301.318 151.214C297.708 163.372 301.995 179.517 302 192C302.001 194.527 300.643 203.5 304.318 204.079C308.626 204.757 314.351 196.649 317 194C327.645 183.355 340.656 173.046 349.682 161C355.081 153.795 352 137.685 352 129C352 103.929 361.569 58.5341 327 54.2863C305.046 51.5885 279.814 60.3436 272.104 83C269.232 91.4404 272.194 100.914 269.411 109C267.817 113.632 261.378 117.519 262.377 122.891C263.067 126.605 266.972 126.834 270 127z"/>
<path style="fill:#dcdbe0; stroke:none;" d="M283 66L284 67L283 66M276 74L277 75L276 74z"/>
<path style="fill:#023c86; stroke:none;" d="M291 143C289.795 131.309 280.647 131 271 131L271 136C284.663 136.161 282.19 149.063 270 144C270.914 164.907 300.177 155.15 309.566 144.725C316.047 137.529 312 115.309 312 106C302.737 109.187 305.942 117.253 304.535 125C303.089 132.965 298.135 139.298 291 143z"/>
<path style="fill:#dcdbe0; stroke:none;" d="M265 115L266 116L265 115M264 116L265 117L264 116M264 126L265 127L264 126z"/>
<path style="fill:#023c86; stroke:none;" d="M94 179L95 179L108 160L103 131C77.8203 132.097 89.9177 163.221 94 179z"/>
<path style="fill:#2a89ff; stroke:none;" d="M103 138L104 139L103 138M271 355C281.836 355.862 292.748 359.356 302 365.065C306.191 367.651 313.681 375.083 318.961 374.122C322.605 373.458 325.391 368.617 327.59 366C333.797 358.608 340.162 351.347 346.421 344C372.895 312.927 398.564 279.003 410 239L392 243L393 238L372 238L372 230L368 230L368 222L380 223L380 222L372 220C375.936 210.379 394.978 219.919 403 222C408.062 210.794 412.03 197.442 424 191.457C439.108 183.903 456.603 199.078 457.812 214C458.293 219.944 454.602 224.543 453 230L483 230L492.763 228.397L490.444 219L493.225 207.004L509 186C518.683 201.75 518.155 208.062 512 225C524.24 216.19 530.355 192.166 516.957 181.418C509.148 175.155 496.288 172.724 487 169.192C467.715 161.859 448.306 154.858 429 147.576C418.042 143.443 406.945 137.79 395 140.096C385.903 141.852 385.628 147.284 380.844 154C373.118 164.845 364.863 175.347 356.873 186C318.857 236.688 293.893 295.994 271 355M104 141L104 144L105 144L104 141z"/>
<path style="fill:#dcdbe0; stroke:none;" d="M567 143L562 156L561 156L551 147L550 160L537 157L542 170L528 171L537 182L525 187L525 188L539 193L539 194C533.62 195.834 530.315 199.469 529 205L542 205C535.555 218.787 524.202 223.371 510 228C519.531 213.656 520.711 199.418 509 186C504.805 196.522 493.628 201.174 490.764 212C489.652 216.204 494.233 226.859 491.508 228.972C482.502 235.958 458.717 222.639 452 233L449 232C449.146 240.169 445.626 248.094 446.184 256C447.818 279.12 455.134 302.982 461.975 325C479.116 380.17 503.46 433.722 538.374 480C559.983 508.642 595.113 544.678 634 545L634 546C597.189 546.305 564.733 578.737 543.084 605C504.649 651.627 478.539 710.474 461.28 768C452.22 798.197 444 830.299 444 862L838 862C838 831.489 830.409 800.178 822 771C805.385 713.348 780.537 657.12 744.373 609C723.33 581 689.831 546.781 652 546L652 545C689.633 544.223 722.355 510.523 743.651 483C780.312 435.617 805.235 378.318 821.709 321C830.196 291.472 838 259.885 838 229L643 228.982L625 225L625 224C629.883 221.721 633.26 218.117 635 213L621 213L626 200L612 205L612 191L600 193L600 192L612 187L612 185L599 180L599 179C603.547 176.874 606.382 173.759 608 169L595 168L599 155L585 161L584 146L575 155L574 155L567 143z"/>
<path style="fill:#023c86; stroke:none;" d="M384 144C364.092 153.422 355.028 168.482 342.116 186C317.489 219.411 301.664 254.033 285.281 292C278.66 307.344 272.167 322.796 265.231 338C263.149 342.564 261.279 351.264 256.775 353.972C252.992 356.247 246.252 355 242 355L207 355L230.14 302L261.452 234L297 183C274.017 189.618 261.562 209.217 250.012 229C235.015 254.686 224.909 283.906 212.694 311C206.46 324.829 195.95 341.052 193.329 356C191.329 367.402 193 380.429 193 392C193 418.589 207.985 450.312 200.28 476C189.08 513.339 177.519 550.586 166.576 588C161.111 606.683 152.162 626.249 157.489 646C161.248 659.936 171.875 672.104 179.656 684C195.161 707.705 210.674 731.396 226.333 755C232.988 765.033 240.924 785.315 254 787.671C263.48 789.378 269.052 783.658 276 778.21C285.698 770.605 295.922 763.336 305 755C311.195 769.8 340.254 769.999 343.528 752C345.654 740.312 338.002 724.364 335.231 713C328.246 684.351 319.944 657.107 309.459 629.576C303.797 614.707 294.199 599.116 293.09 583C292.089 568.467 292.023 553.569 292 539C291.991 533.591 289.972 527.215 291.702 522C295.994 509.062 307.604 496.736 314.548 485C325.275 466.868 330.226 445.003 327.715 424C326.357 412.65 324.172 401.223 322 390C321.197 385.851 321.288 379.953 318.987 376.329C310.943 363.663 285.146 355.609 271 355C299.227 302.053 313.686 244.587 350.127 196L377.127 160C380.466 155.546 386.283 149.923 384 144z"/>
<path style="fill:#2a89ff; stroke:none;" d="M105 146L105 149L106 149L105 146M372 149L373 150L372 149z"/>
<path style="fill:#a7767e; stroke:none;" d="M106 150L107 151L106 150M298.667 150.333L299.333 150.667L298.667 150.333z"/>
<path style="fill:#2a89ff; stroke:none;" d="M106 151L106 154L107 154L106 151z"/>
<path style="fill:#a7767e; stroke:none;" d="M296 151L297 152L296 151z"/>
<path style="fill:#2a89ff; stroke:none;" d="M301 181C289.7 187.422 280.577 205.563 272.884 216C252.176 244.095 240.169 278.268 226.14 310C219.925 324.056 209.697 339.873 207 355L243 355C247.066 355 254.039 356.315 257.582 353.972C261.729 351.23 263.714 342.394 265.694 338C272.113 323.76 278.277 309.359 284.421 295C295.989 267.967 306.197 238.69 322.344 214C335.673 193.619 357.543 174.371 367 152C347.3 157.673 333.995 176.005 320 190C317.494 192.506 307.539 205.452 303.603 203.079C299.592 200.66 302.32 185.464 301 181z"/>
<path style="fill:#a7767e; stroke:none;" d="M107 155L108 156L107 155z"/>
<path style="fill:#2a89ff; stroke:none;" d="M107 156L107 159L108 159L107 156z"/>
<path style="fill:#a7767e; stroke:none;" d="M104 181C105.621 178.151 114.901 162.09 107.737 160.921C102.865 160.126 98.0554 172.746 95.9213 176C87.5377 188.783 88.5193 195.535 89.321 210C89.9374 221.122 87.5888 226.747 91.9969 238C94.2612 243.781 102.652 266.588 111.004 261.793C116.393 258.699 127.33 249.968 129.381 243.996C130.537 240.632 128.565 237.363 128.495 234C128.246 222.147 125.837 211.623 125.025 200C124.68 195.062 125.402 174.792 120.566 172.643C114.598 169.99 108.142 178.086 104 181z"/>
<path style="fill:#dcdbe0; stroke:none;" d="M110 164L111 165L110 164z"/>
<path style="fill:#010101; stroke:none;" d="M594 168L595 169L594 168z"/>
<path style="fill:#023c86; stroke:none;" d="M109 169L104 181C109.268 178.512 111.624 174.517 109 169z"/>
<path style="fill:#2a89ff; stroke:none;" d="M110 170L110 174L111 174L110 170M565 170.48C543.414 174.833 551.49 207.547 573 202.606C593.403 197.919 585.333 166.38 565 170.48z"/>
<path style="fill:#023c86; stroke:none;" d="M112 186L100 199C104.248 196.547 113.139 191.61 112 186z"/>
<path style="fill:#2a89ff; stroke:none;" d="M113 187L114 188L113 187M279 190L280 191L279 190z"/>
<path style="fill:#a7767e; stroke:none;" d="M403 222L410 223C410.145 239.206 411.006 255.608 411 272C410.998 276.005 409.171 286.216 412.028 289.338C417.185 294.975 419.812 279.376 420 277C424.766 276.464 427.017 274.754 428 270C434.717 269.781 437.034 266.418 438 260C449.591 258.705 449.382 241.039 449 232L452 233C454.191 226.576 458.336 221.052 457.906 214C456.929 197.986 438.807 183.553 423 191.457C411.899 197.007 406.45 210.879 403 222z"/>
<path style="fill:#2a89ff; stroke:none;" d="M277 191L278 192L277 191M275 192L276 193L275 192M206 308C186.495 298.732 169.215 278.032 154 263.004C147.575 256.658 138.739 245.453 130 243C125.116 249.875 108.364 258.163 106.881 266.171C105.543 273.398 120.434 288.986 124.308 295C142.655 323.485 157.956 359.435 193 369C193 348.725 204.472 330.239 212.694 312C224.5 285.813 234.614 258.262 248.309 233C255.83 219.126 268.935 207.347 275 193C241.456 200.968 231.453 246.803 219.421 275C214.942 285.498 208.001 296.74 206 308z"/>
<path style="fill:#023c86; stroke:none;" d="M114 198C108.487 203.559 102.03 210.382 103.878 219C105.083 224.619 114.64 233.864 119.933 226.4C122.528 222.741 118.411 213.029 117.6 209C116.814 205.093 116.489 201.163 114 198z"/>
<path style="fill:#2a89ff; stroke:none;" d="M115 198L116 199L115 198M116 203L117 204L116 203M117 208L118 209L117 208M118.333 212.667L118.667 213.333L118.333 212.667z"/>
<path style="fill:#dcdbe0; stroke:none;" d="M372 220L380 222L380 223L368 222L368 230L372 230L372 238L411 240L410 223C401.317 221.316 374.826 209.532 372 220z"/>
<path style="fill:#2a89ff; stroke:none;" d="M586 225L580 223C578.374 229.832 578.275 237.296 583.479 242.671C591.954 251.422 607.565 247.593 611.196 236C616.721 218.363 588.541 205.032 586 225M119 217L120 218L119 217z"/>
<path style="fill:#010101; stroke:none;" d="M550 217L531 228L531 229L565 226L565 225L552 227L550 217z"/>
<path style="fill:#2a89ff; stroke:none;" d="M497 228L501 230L501 229L497 228z"/>
<path style="fill:#010101; stroke:none;" d="M508 228L509 229L508 228z"/>
<path style="fill:#2a89ff; stroke:none;" d="M376 230L376 231L384 231L376 230M410 230L410 237L411 237L410 230z"/>
<path style="fill:#dcdbe0; stroke:none;" d="M128 236L129 237L128 236z"/>
<path style="fill:#a7767e; stroke:none;" d="M392 243C396.75 242.983 399.842 242.792 403 239C397.993 238.605 393.048 236.718 392 243z"/>
<path style="fill:#dcdbe0; stroke:none;" d="M93 241L94 242L93 241z"/>
<path style="fill:#010101; stroke:none;" d="M424 246L424 249L425 249L424 246z"/>
<path style="fill:#dcdbe0; stroke:none;" d="M423 252L424 253L423 252z"/>
<path style="fill:#010101; stroke:none;" d="M423 253L424 254L423 253z"/>
<path style="fill:#2a89ff; stroke:none;" d="M587 264L580 270L579 263C562.937 266.861 557.391 292.443 577 295.775C597.219 299.212 604.124 273.309 587 264z"/>
<path style="fill:#dcdbe0; stroke:none;" d="M436 266L437 267L436 266M416 289L417 290L416 289z"/>
<path style="fill:#a7767e; stroke:none;" d="M294 592L295 593L294 592M295 594L296 595L295 594M296 597L297 598L296 597M297 599L298 600L297 599M298 602L299 603L298 602M299.333 604.667L299.667 605.333L299.333 604.667M300 607L301 608L300 607M301.333 609.667L301.667 610.333L301.333 609.667M302 612L303 613L302 612M303.333 614.667L303.667 615.333L303.333 614.667M304 617L305 618L304 617M305.333 619.667L305.667 620.333L305.333 619.667M306 622L307 623L306 622M307.333 624.667L307.667 625.333L307.333 624.667M308 627L309 628L308 627M309 630L310 631L309 630M310 632L311 633L310 632M311.333 634.667L311.667 635.333L311.333 634.667M312 637L313 638L312 637M313.333 639.667L313.667 640.333L313.333 639.667M314 642L315 643L314 642M315.333 644.667L315.667 645.333L315.333 644.667M316 647L317 648L316 647M317.333 649.667L317.667 650.333L317.333 649.667M318 652L319 653L318 652M319.333 654.667L319.667 655.333L319.333 654.667M320 657L321 658L320 657M321.333 659.667L321.667 660.333L321.333 659.667M322.333 662.667L322.667 663.333L322.333 662.667M323.333 666.667L323.667 667.333L323.333 666.667M324 671L325 672L324 671M304 755L277 776.65L266.881 786.174L274 800C280.597 798.672 282.111 802.259 284 808C293.414 804.815 303.679 801.79 308.095 791.999C309.64 788.573 309.669 772.056 314.148 772.056C321.916 772.056 330.69 788.591 338 792L335 764C328.749 764.79 317.023 767.424 311.329 763.972C308.099 762.015 306.663 757.627 304 755z"/>
<path style="fill:#dcdbe0; stroke:none;" d="M284 808C283.369 805.284 281.78 797.255 277.299 799.256C272.605 801.353 274.195 815.529 269.941 819.96C257.814 832.592 242.512 827.922 228.044 833.893C223.649 835.706 222.254 840.624 223.434 844.999C226.789 857.44 249.331 853 259 853C278.568 853 295.457 855.842 308.258 837.714C312.22 832.104 311.965 825.526 317.093 820.004C323.623 812.973 335.976 806.622 340.248 798.012C342.665 793.142 323.767 778.6 320 775.02C318.331 773.434 315.178 769.816 312.603 771.752C308.571 774.783 310.007 787.253 307.622 791.999C302.731 801.734 293.057 803.765 284 808z"/>
<path style="fill:#2a89ff; stroke:none;" d="M230 853L230 854C235.493 857.24 241.769 862.063 248 863.582C267.399 868.312 293.001 864 313 864C321.835 864 335.982 866.667 343.985 862.543C347.986 860.481 356.966 848.757 349.848 845.603C341.838 842.055 326.749 845 318 845C327.044 837.099 344.9 825.918 348.362 813.999C349.392 810.451 350.479 795.052 343.892 795.921C339.003 796.567 332.492 804.738 329 808.036C323.887 812.864 317.86 817.19 313.8 823C310.956 827.071 311.103 831.767 308.825 835.911C305.959 841.122 298.804 846.85 294 850.276C288.328 854.321 280.62 853 274 853L230 853z"/>
<path style="fill:#dcdbe0; stroke:none;" d="M318 845L349 845L345 821C335.525 825.419 324.558 836.867 318 845z"/>
</svg>
